<?xml version="1.0" encoding="UTF-8" standalone="no"?>
<!DOCTYPE svg PUBLIC "-//W3C//DTD SVG 1.1//EN" "http://www.w3.org/Graphics/SVG/1.1/DTD/svg11.dtd">
<svg width="100%" height="100%" viewBox="0 0 1667 835" version="1.1" xmlns="http://www.w3.org/2000/svg" xmlns:xlink="http://www.w3.org/1999/xlink" xml:space="preserve" xmlns:serif="http://www.serif.com/" style="fill-rule:evenodd;clip-rule:evenodd;stroke-linejoin:round;stroke-miterlimit:2;">
    <g transform="matrix(1,0,0,1,-12597,-3535)">
        <g transform="matrix(1.18698,0,0,1.71932,-1941.63,0)">
            <g id="horizontal_dark" transform="matrix(0.752073,0,0,0.282947,10031.6,1246.53)">
                <rect x="2948" y="2863" width="1867" height="1713" style="fill:rgb(26,26,26);"/>
                <g transform="matrix(1.25139,0,0,1.25139,-947.327,-935.319)">
                    <g id="decided-2023-03-04" transform="matrix(0.529231,0,0,0.971154,3202.82,3137.84)">
                        <path d="M390.35,701.54C390.35,711.481 382.291,719.54 372.35,719.54C362.409,719.54 354.35,711.481 354.35,701.54C354.35,691.599 362.409,683.54 372.35,683.54C382.291,683.54 390.35,691.599 390.35,701.54" style="fill:rgb(236,64,122);fill-rule:nonzero;"/>
                        <path d="M434.3,745.49C434.3,755.428 426.241,763.49 416.3,763.49C406.359,763.49 398.3,755.428 398.3,745.49C398.3,735.549 406.359,727.49 416.3,727.49C426.241,727.49 434.3,735.549 434.3,745.49" style="fill:rgb(236,64,122);fill-rule:nonzero;"/>
                        <path d="M478.25,789.44C478.25,799.381 470.191,807.44 460.25,807.44C450.309,807.44 442.25,799.381 442.25,789.44C442.25,779.499 450.309,771.44 460.25,771.44C470.191,771.44 478.25,779.499 478.25,789.44" style="fill:rgb(236,64,122);fill-rule:nonzero;"/>
                        <path d="M522.2,833.39C522.2,843.328 514.141,851.39 504.2,851.39C494.259,851.39 486.2,843.328 486.2,833.39C486.2,823.449 494.259,815.39 504.2,815.39C514.141,815.39 522.2,823.449 522.2,833.39" style="fill:rgb(236,64,122);fill-rule:nonzero;"/>
                        <path d="M618,795.44C618,805.381 609.941,813.44 600,813.44C590.059,813.44 582,805.381 582,795.44C582,785.499 590.059,777.44 600,777.44C609.941,777.44 618,785.499 618,795.44" style="fill:rgb(236,64,122);fill-rule:nonzero;"/>
                        <path d="M618,737.54C618,747.481 609.941,755.54 600,755.54C590.059,755.54 582,747.481 582,737.54C582,727.599 590.059,719.54 600,719.54C609.941,719.54 618,727.599 618,737.54" style="fill:rgb(236,64,122);fill-rule:nonzero;"/>
                        <path d="M852.35,366.24C852.35,376.181 844.288,384.24 834.35,384.24C824.409,384.24 816.35,376.181 816.35,366.24C816.35,356.303 824.409,348.24 834.35,348.24C844.288,348.24 852.35,356.303 852.35,366.24" style="fill:rgb(236,64,122);fill-rule:nonzero;"/>
                        <path d="M808.4,410.19C808.4,420.131 800.341,428.19 790.4,428.19C780.459,428.19 772.4,420.131 772.4,410.19C772.4,400.249 780.459,392.19 790.4,392.19C800.341,392.19 808.4,400.249 808.4,410.19" style="fill:rgb(236,64,122);fill-rule:nonzero;"/>
                        <path d="M764.45,454.13C764.45,464.071 756.388,472.13 746.45,472.13C736.509,472.13 728.45,464.071 728.45,454.13C728.45,444.193 736.509,436.13 746.45,436.13C756.388,436.13 764.45,444.193 764.45,454.13" style="fill:rgb(236,64,122);fill-rule:nonzero;"/>
                        <path d="M720.5,498.08C720.5,508.021 712.441,516.08 702.5,516.08C692.559,516.08 684.5,508.021 684.5,498.08C684.5,488.139 692.559,480.08 702.5,480.08C712.441,480.08 720.5,488.139 720.5,498.08" style="fill:rgb(236,64,122);fill-rule:nonzero;"/>
                        <g id="bottom-left" transform="matrix(1,0,0,1,169.018,-45)">
                            <path d="M101.22,894.98C145.373,894.98 181.22,930.827 181.22,974.98C181.22,1019.13 145.373,1054.98 101.22,1054.98C57.067,1054.98 21.22,1019.13 21.22,974.98C21.22,930.827 57.067,894.98 101.22,894.98ZM101.22,910.98C136.543,910.98 165.22,939.657 165.22,974.98C165.22,1010.3 136.543,1038.98 101.22,1038.98C65.897,1038.98 37.22,1010.3 37.22,974.98C37.22,939.657 65.897,910.98 101.22,910.98Z" style="fill:rgb(236,64,122);"/>
                        </g>
                        <g id="bottom-center-to-left" transform="matrix(1.16473,0,0,0.443889,-71.8426,517.163)">
                            <rect x="360.238" y="912" width="151.762" height="36" style="fill:rgb(236,64,122);"/>
                        </g>
                        <g id="bottom-center" transform="matrix(1,0,0,1,334.784,167)">
                            <path d="M265.22,672.98C314.892,672.98 355.22,713.308 355.22,762.98C355.22,812.652 314.892,852.98 265.22,852.98C215.548,852.98 175.22,812.652 175.22,762.98C175.22,713.308 215.548,672.98 265.22,672.98ZM265.22,708.98C295.023,708.98 319.22,733.177 319.22,762.98C319.22,792.783 295.023,816.98 265.22,816.98C235.417,816.98 211.22,792.783 211.22,762.98C211.22,733.177 235.417,708.98 265.22,708.98Z" style="fill:rgb(236,64,122);"/>
                        </g>
                        <g id="middle-center-to-right" transform="matrix(1.16473,0,0,0.443889,255.427,187.183)">
                            <rect x="360.238" y="912" width="151.762" height="36" style="fill:rgb(236,64,122);"/>
                        </g>
                        <g id="middle-right" transform="matrix(1,0,0,1,828.55,-374.98)">
                            <path d="M101.22,894.98C145.373,894.98 181.22,930.827 181.22,974.98C181.22,1019.13 145.373,1054.98 101.22,1054.98C57.067,1054.98 21.22,1019.13 21.22,974.98C21.22,930.827 57.067,894.98 101.22,894.98ZM101.22,910.98C136.543,910.98 165.22,939.657 165.22,974.98C165.22,1010.3 136.543,1038.98 101.22,1038.98C65.897,1038.98 37.22,1010.3 37.22,974.98C37.22,939.657 65.897,910.98 101.22,910.98Z" style="fill:rgb(236,64,122);"/>
                        </g>
                        <g id="middle-left" transform="matrix(1,0,0,1,5.018,-162.98)">
                            <path d="M265.22,672.98C314.892,672.98 355.22,713.308 355.22,762.98C355.22,812.652 314.892,852.98 265.22,852.98C215.548,852.98 175.22,812.652 175.22,762.98C175.22,713.308 215.548,672.98 265.22,672.98ZM265.22,708.98C295.023,708.98 319.22,733.177 319.22,762.98C319.22,792.783 295.023,816.98 265.22,816.98C235.417,816.98 211.22,792.783 211.22,762.98C211.22,733.177 235.417,708.98 265.22,708.98Z" style="fill:rgb(236,64,122);"/>
                        </g>
                        <g id="middle-center" transform="matrix(1,0,0,1,334.78,-162.98)">
                            <path d="M265.22,672.98C314.892,672.98 355.22,713.308 355.22,762.98C355.22,812.652 314.892,852.98 265.22,852.98C215.548,852.98 175.22,812.652 175.22,762.98C175.22,713.308 215.548,672.98 265.22,672.98ZM265.22,708.98C295.023,708.98 319.22,733.177 319.22,762.98C319.22,792.783 295.023,816.98 265.22,816.98C235.417,816.98 211.22,792.783 211.22,762.98C211.22,733.177 235.417,708.98 265.22,708.98Z" style="fill:rgb(236,64,122);"/>
                        </g>
                        <g id="top-center" transform="matrix(1,0,0,1,498.784,-704.96)">
                            <path d="M101.22,894.98C145.373,894.98 181.22,930.827 181.22,974.98C181.22,1019.13 145.373,1054.98 101.22,1054.98C57.067,1054.98 21.22,1019.13 21.22,974.98C21.22,930.827 57.067,894.98 101.22,894.98ZM101.22,910.98C136.543,910.98 165.22,939.657 165.22,974.98C165.22,1010.3 136.543,1038.98 101.22,1038.98C65.897,1038.98 37.22,1010.3 37.22,974.98C37.22,939.657 65.897,910.98 101.22,910.98Z" style="fill:rgb(236,64,122);"/>
                        </g>
                        <g id="top-center-to-right" transform="matrix(1.16473,0,0,0.443889,255.414,-142.797)">
                            <rect x="360.238" y="912" width="151.762" height="36" style="fill:rgb(236,64,122);"/>
                        </g>
                        <g id="top-right" transform="matrix(1,0,0,1,664.537,-492.96)">
                            <path d="M265.22,672.98C314.892,672.98 355.22,713.308 355.22,762.98C355.22,812.652 314.892,852.98 265.22,852.98C215.548,852.98 175.22,812.652 175.22,762.98C175.22,713.308 215.548,672.98 265.22,672.98ZM265.22,708.98C295.023,708.98 319.22,733.177 319.22,762.98C319.22,792.783 295.023,816.98 265.22,816.98C235.417,816.98 211.22,792.783 211.22,762.98C211.22,733.177 235.417,708.98 265.22,708.98Z" style="fill:rgb(236,64,122);"/>
                        </g>
                    </g>
                    <g transform="matrix(1.1202,0,0,2.0556,2091.18,-6214.47)">
                        <g transform="matrix(150,0,0,150,1780.97,4812.44)">
                            <path d="M0.293,0.012C0.246,0.012 0.205,0.001 0.168,-0.022C0.131,-0.045 0.102,-0.076 0.081,-0.115C0.06,-0.154 0.049,-0.199 0.049,-0.249C0.049,-0.299 0.06,-0.343 0.081,-0.383C0.102,-0.422 0.131,-0.452 0.168,-0.475C0.205,-0.497 0.246,-0.508 0.293,-0.508C0.33,-0.508 0.363,-0.501 0.391,-0.487C0.419,-0.473 0.442,-0.453 0.459,-0.428L0.466,-0.496L0.587,-0.496L0.587,-0L0.467,-0L0.459,-0.071C0.443,-0.049 0.422,-0.03 0.396,-0.013C0.369,0.004 0.335,0.012 0.293,0.012ZM0.32,-0.1C0.361,-0.1 0.395,-0.114 0.422,-0.142C0.448,-0.169 0.461,-0.205 0.461,-0.248C0.461,-0.291 0.448,-0.327 0.422,-0.355C0.395,-0.382 0.361,-0.396 0.32,-0.396C0.279,-0.396 0.246,-0.382 0.219,-0.355C0.192,-0.328 0.179,-0.292 0.179,-0.249C0.179,-0.206 0.192,-0.17 0.219,-0.142C0.246,-0.114 0.279,-0.1 0.32,-0.1Z" style="fill:rgb(236,64,122);fill-rule:nonzero;"/>
                        </g>
                        <text x="1593.62px" y="4812.44px" style="font-family:'DMSans-Bold', 'DM Sans';font-weight:700;font-size:150px;fill:rgb(236,64,122);">Sp<tspan x="1878.77px " y="4812.44px ">r</tspan>se</text>
                        <g transform="matrix(150,0,0,150,1669.22,4962.44)">
                            <path d="M0.294,0.012C0.245,0.012 0.202,0.001 0.165,-0.022C0.128,-0.045 0.099,-0.076 0.079,-0.115C0.058,-0.154 0.048,-0.199 0.048,-0.249C0.048,-0.299 0.058,-0.343 0.079,-0.383C0.1,-0.422 0.128,-0.452 0.165,-0.475C0.202,-0.497 0.245,-0.508 0.295,-0.508C0.336,-0.508 0.372,-0.5 0.403,-0.483C0.434,-0.466 0.459,-0.443 0.476,-0.413L0.48,-0.496L0.56,-0.496L0.56,-0L0.481,-0L0.476,-0.082C0.46,-0.058 0.437,-0.036 0.407,-0.017C0.377,0.002 0.339,0.012 0.294,0.012ZM0.303,-0.061C0.336,-0.061 0.366,-0.069 0.392,-0.085C0.417,-0.1 0.437,-0.122 0.452,-0.15C0.466,-0.178 0.473,-0.211 0.473,-0.248C0.473,-0.285 0.466,-0.318 0.452,-0.346C0.437,-0.374 0.417,-0.396 0.392,-0.412C0.366,-0.427 0.336,-0.435 0.303,-0.435C0.27,-0.435 0.241,-0.427 0.216,-0.412C0.19,-0.396 0.17,-0.374 0.156,-0.346C0.141,-0.318 0.134,-0.285 0.134,-0.248C0.134,-0.211 0.141,-0.178 0.156,-0.15C0.17,-0.122 0.19,-0.1 0.216,-0.085C0.241,-0.069 0.27,-0.061 0.303,-0.061Z" style="fill:rgb(236,64,122);fill-rule:nonzero;"/>
                        </g>
                        <text x="1593.62px" y="4962.44px" style="font-family:'DMSans-Regular', 'DM Sans';font-size:150px;fill:rgb(236,64,122);">L<tspan x="1763.42px " y="4962.44px ">b</tspan>s</text>
                    </g>
                </g>
            </g>
        </g>
    </g>
</svg>
